inDegrees=yes
name=ik_lifting_orientations
DataType=double
version=3
OpenSimVersion=4.5-2024-01-10-34fd6af
endheader
time	pelvis_tilt	pelvis_list	pelvis_rotation	pelvis_tx	pelvis_ty	pelvis_tz	hip_flexion_r	hip_adduction_r	hip_rotation_r	knee_angle_r	knee_angle_r_beta	ankle_angle_r	subtalar_angle_r	mtp_angle_r	hip_flexion_l	hip_adduction_l	hip_rotation_l	knee_angle_l	knee_angle_l_beta	ankle_angle_l	subtalar_angle_l	mtp_angle_l	lumbar_extension	lumbar_bending	lumbar_rotation	arm_flex_r	arm_add_r	arm_rot_r	elbow_flex_r	pro_sup_r	wrist_flex_r	wrist_dev_r	arm_flex_l	arm_add_l	arm_rot_l	elbow_flex_l	pro_sup_l	wrist_flex_l	wrist_dev_l
0.61	-11.06737493921926	-8.702968870811729	-103.7823695335002	0	0.9399999998679526	0	45.43854155320397	-10.91152517967434	0	59.99090470356656	1.047038808327389	-5.403755363319589	0	0	45.43854155320397	-10.91152517967434	0	59.99090470356656	1.047038808327389	-5.403755363319589	0	0	0.03197338078902032	0.4281142588433623	2.620809977510141	-1.93462214521078	1.799468124542001	8.419068049785645	0.01191627271057549	1.794580174622704	0	0	0	-11.86114759066265	0	88.24093354497744	1.794580174622704	0	0
0.62	-11.41490172196292	-8.922470310576831	-103.9701512520491	0	0.9399999998679526	0	45.43839060574852	-10.91042842135239	0	59.99090719860022	1.047038851873942	-5.403121915268308	0	0	45.43839060574852	-10.91042842135239	0	59.99090719860022	1.047038851873942	-5.403121915268308	0	0	0.5614581271670802	0.03994740760484291	2.609327167206708	-2.613674684925326	2.358196847541087	8.230070697289777	0.01195368124536475	1.794150252469325	0	0	0	-11.86170115006676	0	88.2413549116183	1.794150252469325	0	0
0.63	-11.67323326593069	-9.116556845165409	-104.0575860801166	0	0.9399999998679526	0	45.43833391816804	-10.91002074187483	0	59.99090814304543	1.04703886835762	-5.402886940038106	0	0	45.43833391816804	-10.91002074187483	0	59.99090814304543	1.04703886835762	-5.402886940038106	0	0	0.6519529664018426	-0.00970873235675521	2.56299426453825	-2.901909854627406	2.576776622286297	8.080683192930977	0.01194755813382894	1.793988296599595	0	0	0	-11.8619102291061	0	88.24151364458034	1.793988296599595	0	0
0.64	-11.77226864605323	-9.193981662073101	-104.0735709820853	0	0.9399999998679526	0	45.43820655497333	-10.90909878495898	0	59.99091025313076	1.047038905185557	-5.402354949849406	0	0	45.43820655497333	-10.90909878495898	0	59.99091025313076	1.047038905185557	-5.402354949849406	0	0	0.8840788200728271	-0.2195846825542819	2.451083634267484	-3.197089509775389	2.857068273433391	8.264676391118204	0.01188540837200295	1.793625189339518	0	0	0	-11.86237813891102	0	88.24186952598151	1.793625189339518	0	0
0.65	-12.02846561695843	-9.356884273884635	-104.3250485485282	0	0.9399999998679526	0	45.43805948964891	-10.90803236479984	0	59.99091268465757	1.047038947623705	-5.401739525800638	0	0	45.43805948964891	-10.90803236479984	0	59.99091268465757	1.047038947623705	-5.401739525800638	0	0	1.0744094439198	-0.3514947026357289	2.471380637452159	-3.984935556712297	3.208633477649909	8.357278064887151	0.01155840952623568	1.793206210570183	0	0	0	-11.86291770273101	0	88.24228016702376	1.793206210570183	0	0
0.66	-12.18906940275894	-9.449596437697355	-104.5199213110183	0	0.9399999998679526	0	45.4379224727713	-10.90703974047176	0	59.99091495046492	1.047038987169504	-5.401166897723548	0	0	45.4379224727713	-10.90703974047176	0	59.99091495046492	1.047038987169504	-5.401166897723548	0	0	1.241939775620509	-0.4753182307765974	2.444673959286876	-4.444556021287475	3.42798202028278	8.552315174747301	0.01150635291507473	1.792815803706306	0	0	0	-11.8634205204537	0	88.24266280474983	1.792815803706306	0	0
0.67	-12.40953999994229	-9.596904064459419	-104.6795872074812	0	0.9399999998679526	0	45.43785699096608	-10.90656692000917	0	59.99091603573261	1.047039006110998	-5.400894345771428	0	0	45.43785699096608	-10.90656692000917	0	59.99091603573261	1.047039006110998	-5.400894345771428	0	0	1.24670765497887	-0.4687519452745975	2.477484830033832	-4.757683312663437	3.478940759012318	8.282405499065097	0.01138022429309715	1.792629054581706	0	0	0	-11.86366122225	0	88.24284583755991	1.792629054581706	0	0
0.68	-12.62618433814133	-9.716885806093069	-104.9004951384433	0	0.9399999998679526	0	45.43779212509984	-10.90609951144952	0	59.99091711234501	1.047039024901429	-5.400625038484571	0	0	45.43779212509984	-10.90609951144952	0	59.99091711234501	1.047039024901429	-5.400625038484571	0	0	1.27296556575717	-0.4580153101894642	2.49076248267374	-4.964113622677714	3.67473790551706	8.160787879465625	0.0114616359187504	1.792443953683949	0	0	0	-11.86389991684013	0	88.24302725495109	1.792443953683949	0	0
0.6899999999999999	-13.14670185963436	-10.01818344405135	-105.4830773792566	0	0.9399999998679526	0	45.43768498029858	-10.90532678633774	0	59.9909188888278	1.047039055906903	-5.400179794337031	0	0	45.43768498029858	-10.90532678633774	0	59.9909188888278	1.047039055906903	-5.400179794337031	0	0	1.115278313999403	-0.2553691517241695	2.861394537026472	-5.323163072530017	3.783294054516412	7.869069193464393	0.01165671532316576	1.792138315454253	0	0	0	-11.86429392279683	0	88.24332681097449	1.792138315454253	0	0
0.7	-13.44433023228851	-10.17744916871826	-105.8004973757461	0	0.9399999998679526	0	45.43761131245774	-10.90479840615768	0	59.99092011528609	1.047039077312639	-5.399875690761209	0	0	45.43761131245774	-10.90479840615768	0	59.99092011528609	1.047039077312639	-5.399875690761209	0	0	1.115038149244172	-0.2126707170034941	2.965629027060107	-5.456064615629807	3.892117772242393	7.916414678773882	0.01198371557462447	1.79192783067644	0	0	0	-11.8645656367281	0	88.24353310712696	1.79192783067644	0	0
0.71	-13.7352125457607	-10.35825569796556	-106.0388669976153	0	0.9399999998679526	0	45.43751279028855	-10.90409163054219	0	59.99092175485652	1.047039105928541	-5.399468935000864	0	0	45.43751279028855	-10.90409163054219	0	59.99092175485652	1.047039105928541	-5.399468935000864	0	0	0.9793191873189526	-0.06285439427383795	3.171256767087327	-5.372149009930864	3.923736962540353	7.770799136015897	0.01221486644807874	1.791646366174647	0	0	0	-11.86492893691806	0	88.24380897051211	1.791646366174647	0	0
0.72	-13.89880023294438	-10.45237143604303	-106.2370594887262	0	0.9399999998679526	0	45.43736899946862	-10.90305083374955	0	59.99092412895207	1.047039147364325	-5.398869055021576	0	0	45.43736899946862	-10.90305083374955	0	59.99092412895207	1.047039147364325	-5.398869055021576	0	0	0.9312206941808494	-0.00848351647089785	3.272483550787855	-5.506085750130455	3.985731427364838	7.494866472135285	0.01241940396812989	1.791236791934176	0	0	0	-11.86545624333727	0	88.24421039417534	1.791236791934176	0	0
0.73	-14.04492045541669	-10.53390673969585	-106.2969176492606	0	0.9399999998679526	0	45.43731197446539	-10.9026401071887	0	59.99092507383364	1.047039163855619	-5.398632582382891	0	0	45.43731197446539	-10.9026401071887	0	59.99092507383364	1.047039163855619	-5.398632582382891	0	0	0.9219234720066229	0.02382375090489908	3.192771800177065	-5.541050082729347	4.183292003317529	7.170469351369271	0.012972586765065	1.791074130884328	0	0	0	-11.86566591101843	0	88.24436981826777	1.791074130884328	0	0
0.74	-14.19674642009873	-10.63657035670298	-106.4197518943672	0	0.9399999998679526	0	45.43720010071066	-10.9018318686692	0	59.99092692238024	1.047039196118844	-5.398167023873401	0	0	45.43720010071066	-10.9018318686692	0	59.99092692238024	1.047039196118844	-5.398167023873401	0	0	0.8831188453099218	0.04586413258158485	3.255242970394837	-5.404932436466372	4.299280971535794	6.326845155007449	0.0136458436627732	1.790755345510848	0	0	0	-11.86607645391631	0	88.24468225978346	1.790755345510848	0	0
